<svg width="1200" height="800" viewBox="0 0 1200 800" xmlns="http://www.w3.org/2000/svg">
  <!-- Sky background -->
  <rect width="1200" height="800" fill="#f5f2e8"/>
  
  <!-- Large tree on the left -->
  <g transform="translate(100, 400)">
    <!-- Tree trunks -->
    <path d="M 50 200 Q 60 150 70 200 Q 80 150 90 200" stroke="#8b4513" stroke-width="8" fill="none"/>
    <path d="M 70 200 Q 80 150 90 200" stroke="#8b4513" stroke-width="6" fill="none"/>
    
    <!-- Tree canopy -->
    <ellipse cx="70" cy="150" rx="80" ry="60" fill="#4caf50" opacity="0.8"/>
    <ellipse cx="60" cy="140" rx="60" ry="45" fill="#66bb6a" opacity="0.9"/>
    <ellipse cx="80" cy="160" rx="50" ry="40" fill="#388e3c" opacity="0.7"/>
  </g>
  
  <!-- Small tree on the right -->
  <g transform="translate(800, 450)">
    <!-- Tree trunk -->
    <path d="M 30 150 Q 40 100 50 150" stroke="#8b4513" stroke-width="6" fill="none"/>
    
    <!-- Tree canopy -->
    <ellipse cx="40" cy="120" rx="50" ry="40" fill="#66bb6a" opacity="0.8"/>
    <ellipse cx="35" cy="110" rx="35" ry="30" fill="#4caf50" opacity="0.9"/>
  </g>
  
  <!-- Water -->
  <rect x="0" y="500" width="1200" height="120" fill="#007acc" opacity="0.8"/>
  <rect x="0" y="580" width="1200" height="60" fill="#42a5f5" opacity="0.9"/>
  
  <!-- Grass/land -->
  <rect x="0" y="640" width="1200" height="160" fill="#8bc34a"/>
  
  <!-- Golden path -->
  <path d="M 1000 800 L 800 700 L 600 750 L 400 720 L 200 740 L 0 760" stroke="#ffd700" stroke-width="40" fill="none" opacity="0.9"/>
  <path d="M 1000 800 L 800 700 L 600 750 L 400 720 L 200 740 L 0 760" stroke="#ffeb3b" stroke-width="20" fill="none" opacity="0.7"/>
  
  <!-- Building -->
  <g transform="translate(950, 550)">
    <!-- Building structure -->
    <rect x="0" y="0" width="80" height="60" fill="#e3f2fd" opacity="0.9"/>
    <rect x="10" y="10" width="60" height="40" fill="#bbdefb" opacity="0.8"/>
    
    <!-- Archway/door -->
    <path d="M 30 50 Q 30 30 40 30 Q 50 30 50 50" stroke="#81c784" stroke-width="3" fill="none"/>
    <rect x="35" y="40" width="10" height="10" fill="#4caf50" opacity="0.6"/>
  </g>
  
  <!-- Watercolor texture overlay -->
  <defs>
    <filter id="watercolor">
      <feGaussianBlur stdDeviation="2"/>
      <feColorMatrix values="1 0 0 0 0  0 1 0 0 0  0 0 1 0 0  0 0 0 0.7 0"/>
    </filter>
  </defs>
  
  <!-- Soft watercolor effects -->
  <ellipse cx="200" cy="300" rx="150" ry="100" fill="#4caf50" opacity="0.1" filter="url(#watercolor)"/>
  <ellipse cx="800" cy="350" rx="100" ry="80" fill="#66bb6a" opacity="0.1" filter="url(#watercolor)"/>
  <ellipse cx="600" cy="600" rx="200" ry="50" fill="#007acc" opacity="0.1" filter="url(#watercolor)"/>
</svg>