<svg xmlns="http://www.w3.org/2000/svg" viewBox="0 0 1200 800">
  <defs>
    <!-- Gradiente para el cielo/fondo -->
    <linearGradient id="sky" x1="0%" y1="0%" x2="0%" y2="100%">
      <stop offset="0%" style="stop-color:#f5f2e8;stop-opacity:1" />
      <stop offset="100%" style="stop-color:#f0ebe0;stop-opacity:1" />
    </linearGradient>
    
    <!-- Gradiente para el agua -->
    <linearGradient id="water" x1="0%" y1="0%" x2="100%" y2="0%">
      <stop offset="0%" style="stop-color:#1e88e5;stop-opacity:0.9" />
      <stop offset="50%" style="stop-color:#42a5f5;stop-opacity:1" />
      <stop offset="100%" style="stop-color:#1e88e5;stop-opacity:0.9" />
    </linearGradient>
    
    <!-- Gradiente para los árboles -->
    <radialGradient id="tree1" cx="40%" cy="30%" r="80%">
      <stop offset="0%" style="stop-color:#a8e6a3;stop-opacity:0.9" />
      <stop offset="40%" style="stop-color:#66bb6a;stop-opacity:1" />
      <stop offset="80%" style="stop-color:#388e3c;stop-opacity:0.8" />
      <stop offset="100%" style="stop-color:#2e7d32;stop-opacity:0.7" />
    </radialGradient>
    
    <radialGradient id="tree2" cx="50%" cy="40%" r="70%">
      <stop offset="0%" style="stop-color:#c8e6c9;stop-opacity:0.8" />
      <stop offset="50%" style="stop-color:#81c784;stop-opacity:0.9" />
      <stop offset="100%" style="stop-color:#4caf50;stop-opacity:0.8" />
    </radialGradient>
    
    <!-- Gradiente para el césped -->
    <linearGradient id="grass" x1="0%" y1="0%" x2="0%" y2="100%">
      <stop offset="0%" style="stop-color:#8bc34a;stop-opacity:0.8" />
      <stop offset="100%" style="stop-color:#689f38;stop-opacity:0.9" />
    </linearGradient>
    
    <!-- Gradiente para el camino -->
    <linearGradient id="path" x1="0%" y1="0%" x2="100%" y2="0%">
      <stop offset="0%" style="stop-color:#ffd54f;stop-opacity:0.9" />
      <stop offset="50%" style="stop-color:#ffeb3b;stop-opacity:1" />
      <stop offset="100%" style="stop-color:#ffc107;stop-opacity:0.8" />
    </linearGradient>
    
    <!-- Gradiente para el edificio -->
    <linearGradient id="building" x1="0%" y1="0%" x2="100%" y2="100%">
      <stop offset="0%" style="stop-color:#e3f2fd;stop-opacity:0.9" />
      <stop offset="100%" style="stop-color:#bbdefb;stop-opacity:0.8" />
    </linearGradient>
  </defs>
  
  <!-- Fondo del cielo -->
  <rect width="1200" height="800" fill="url(#sky)"/>
  
  <!-- Césped en el primer plano -->
  <path d="M 0 650 Q 200 600 400 620 Q 600 640 800 600 Q 1000 580 1200 650 L 1200 800 L 0 800 Z" fill="url(#grass)"/>
  
  <!-- Camino diagonal -->
  <path d="M 900 800 Q 1050 700 1100 600 Q 1150 550 1200 500 L 1200 800 Z" fill="url(#path)"/>
  
  <!-- Agua -->
  <rect x="0" y="480" width="1200" height="120" fill="url(#water)"/>
  
  <!-- Playa/arena frente al agua -->
  <rect x="0" y="580" width="1200" height="30" fill="#ffeb3b" opacity="0.8"/>
  
  <!-- Árbol grande (izquierda) -->
  <ellipse cx="250" cy="400" rx="140" ry="160" fill="url(#tree1)"/>
  <path d="M 240 550 Q 245 560 250 570 Q 255 560 260 550 L 255 600 L 245 600 Z" fill="#8d6e63"/>
  <path d="M 245 600 Q 250 610 255 600" stroke="#5d4037" stroke-width="3" fill="none"/>
  
  <!-- Árbol pequeño (centro-derecha) -->
  <ellipse cx="400" cy="450" rx="80" ry="100" fill="url(#tree2)"/>
  <path d="M 395 530 Q 398 535 400 540 Q 402 535 405 530 L 402 580 L 398 580 Z" fill="#8d6e63"/>
  
  <!-- Edificio moderno (derecha) -->
  <rect x="950" y="380" width="180" height="100" fill="url(#building)" rx="8"/>
  <rect x="1020" y="420" width="40" height="50" fill="#ffffff" opacity="0.9" rx="4"/>
  <rect x="970" y="460" width="140" height="20" fill="#ffffff" opacity="0.8" rx="3"/>
  
  <!-- Detalles atmosféricos -->
  <circle cx="150" cy="200" r="25" fill="#ffffff" opacity="0.4"/>
  <circle cx="1000" cy="150" r="35" fill="#ffffff" opacity="0.3"/>
  <circle cx="600" cy="250" r="20" fill="#ffffff" opacity="0.5"/>
</svg>
